<svg width="32" height="32" viewBox="0 0 32 32" fill="none" xmlns="http://www.w3.org/2000/svg">
  <!-- Ícone de folha baseado no Font Awesome fas fa-leaf -->
  <path d="M16 2C10 2 6 6 6 12C6 16 8 20 12 22C14 24 16 26 18 24C22 22 26 18 26 12C26 6 22 2 16 2Z" fill="#22C55E"/>
  
  <!-- Caule da folha -->
  <rect x="15" y="24" width="2" height="6" fill="#22C55E"/>
  
  <!-- Veios principais da folha (como no Font Awesome) -->
  <path d="M16 4L16 22" stroke="#1A4D1A" stroke-width="1.2" stroke-linecap="round"/>
  <path d="M14 6L18 8" stroke="#1A4D1A" stroke-width="0.8" stroke-linecap="round"/>
  <path d="M18 6L14 8" stroke="#1A4D1A" stroke-width="0.8" stroke-linecap="round"/>
  <path d="M13 10L19 12" stroke="#1A4D1A" stroke-width="0.7" stroke-linecap="round"/>
  <path d="M19 10L13 12" stroke="#1A4D1A" stroke-width="0.7" stroke-linecap="round"/>
  <path d="M12 14L20 16" stroke="#1A4D1A" stroke-width="0.6" stroke-linecap="round"/>
  <path d="M20 14L12 16" stroke="#1A4D1A" stroke-width="0.6" stroke-linecap="round"/>
  <path d="M11 18L21 20" stroke="#1A4D1A" stroke-width="0.5" stroke-linecap="round"/>
  <path d="M21 18L11 20" stroke="#1A4D1A" stroke-width="0.5" stroke-linecap="round"/>
</svg>